#!OML:ASF F:\VICON\USERDATA\INSTALL\rory3\rory3.ASF
:FULLY-SPECIFIED
:DEGREES
392
root 0.286644 17.7746 6.2835 1.49077 -0.583589 1.19206
lowerback 5.2933 -0.492989 -1.87131
upperback -2.06587 -0.674578 2.5332
thorax -5.06515 -0.229173 3.75298
lowerneck -17.4067 -4.07718 -9.76947
upperneck 25.0108 -4.43047 5.49802
head 11.371 -2.26683 3.00299
rclavicle 5.10318e-015 7.15625e-015
rhumerus -36.6086 -11.1012 -77.2935
rradius 37.7626
rwrist 0.712347
rhand -19.6244 21.2318
rfingers 7.12502
rthumb 6.70245 -8.64212
lclavicle 5.10318e-015 7.15625e-015
lhumerus -40.8279 6.97587 76.4357
lradius 39.2446
lwrist -1.80335
lhand -16.9458 23.9537
lfingers 7.12502
lthumb 9.28767 53.7291
rfemur -4.94466 5.48594 21.6834
rtibia 19.9776
rfoot -9.91447 -8.04676
rtoes 4.54387
lfemur -8.07432 -4.157 -22.1178
ltibia 19.6281
lfoot -9.27035 5.28838
ltoes 3.25974
393
root 0.283061 17.7724 6.29773 1.49954 -0.610159 1.19914
lowerback 5.24146 -0.491041 -1.83151
upperback -1.99273 -0.670768 2.50483
thorax -4.95995 -0.231826 3.69813
lowerneck -17.6662 -4.14177 -9.79912
upperneck 25.0431 -4.50438 5.55814
head 11.4435 -2.29204 3.01719
rclavicle 8.41729e-015 0
rhumerus -36.5144 -11.2642 -77.3443
rradius 37.708
rwrist 0.243522
rhand -19.642 20.9276
rfingers 7.12502
rthumb 6.68545 -8.94686
lclavicle 8.41729e-015 0
lhumerus -40.7485 6.97028 76.5067
lradius 39.4184
lwrist -2.22397
lhand -16.4322 24.4404
lfingers 7.12502
lthumb 9.78315 54.1931
rfemur -4.89888 5.54738 21.6986
rtibia 19.9554
rfoot -9.85581 -8.07218
rtoes 4.53577
lfemur -8.02605 -4.10248 -22.1112
ltibia 19.6112
lfoot -9.32788 5.26136
ltoes 2.81086
394
root 0.285259 17.7731 6.31219 1.53184 -0.6196 1.09282
lowerback 5.13482 -0.494465 -1.58154
upperback -1.89974 -0.659189 2.47386
thorax -4.80538 -0.238119 3.51964
lowerneck -17.9761 -4.19613 -9.80989
upperneck 25.0784 -4.56897 5.63555
head 11.5262 -2.30811 3.03577
rclavicle 1.04735e-014 1.27222e-014
rhumerus -36.2851 -11.4919 -77.4305
rradius 37.4651
rwrist -0.347284
rhand -19.7246 20.7019
rfingers 7.12502
rthumb 6.60567 -9.17504
lclavicle 1.04735e-014 1.27222e-014
lhumerus -40.647 6.95726 76.5283
lradius 39.5785
lwrist -2.68733
lhand -16.0486 24.033
lfingers 7.12502
lthumb 10.1533 53.768
rfemur -4.87365 5.43939 21.7922
rtibia 19.9018
rfoot -9.88724 -7.95923
rtoes 4.46869
lfemur -8.01709 -4.06205 -22.0033
ltibia 19.6354
lfoot -9.37797 5.23056
ltoes 2.95762
395
root 0.285827 17.7749 6.32965 1.57443 -0.657864 1.0322
lowerback 5.01139 -0.499747 -1.43276
upperback -1.84092 -0.656406 2.4669
thorax -4.67541 -0.244042 3.42477
lowerneck -18.1725 -4.20074 -9.81726
upperneck 25.0926 -4.56112 5.66514
head 11.5706 -2.29863 3.04794
rclavicle -1.04176e-014 2.54444e-014
rhumerus -36.2398 -11.6522 -77.4571
rradius 37.4063
rwrist -0.778044
rhand -19.7622 20.3476
rfingers 7.12502
rthumb 6.56938 -9.53051
lclavicle -1.04176e-014 2.54444e-014
lhumerus -40.5341 7.00837 76.596
lradius 39.4471
lwrist -2.92633
lhand -16.2892 22.5413
lfingers 7.12502
lthumb 9.92115 52.2875
rfemur -4.85267 5.53595 21.859
rtibia 19.8807
rfoot -9.9201 -8.02191
rtoes 4.44761
lfemur -7.98324 -4.05021 -21.937
ltibia 19.6131
lfoot -9.38629 5.25002
ltoes 3.0667
396
root 0.28716 17.7738 6.35046 1.60582 -0.657411 1.1271
lowerback 4.92131 -0.511469 -1.44363
upperback -1.86531 -0.674471 2.41728
thorax -4.64876 -0.253619 3.37948
lowerneck -18.0995 -4.19417 -9.79787
upperneck 25.0959 -4.55743 5.63578
head 11.5559 -2.30003 3.03489
rclavicle 1.57583e-014 -1.74931e-014
rhumerus -36.3034 -11.8704 -77.3795
rradius 37.2325
rwrist -1.11259
rhand -19.8283 20.3816
rfingers 7.12502
rthumb 6.50554 -9.49853
lclavicle 1.57583e-014 -1.74931e-014
lhumerus -40.6212 6.81458 76.7537
lradius 39.4013
lwrist -2.7359
lhand -16.6812 19.4099
lfingers 7.12502
lthumb 9.54299 49.1738
rfemur -4.76664 5.51514 21.7512
rtibia 19.8361
rfoot -9.97836 -7.99885
rtoes 4.63904
lfemur -7.92319 -3.97316 -22.0529
ltibia 19.5775
lfoot -9.45407 5.20974
ltoes 2.89769
397
root 0.293176 17.7718 6.37301 1.60953 -0.647432 1.29598
lowerback 4.87966 -0.489407 -1.46219
upperback -1.91423 -0.649515 2.32706
thorax -4.67846 -0.241133 3.29365
lowerneck -17.9308 -4.22757 -9.82221
upperneck 24.9857 -4.61508 5.64826
head 11.4868 -2.3281 3.03407
rclavicle -7.20983e-016 -2.62396e-014
rhumerus -36.3445 -12.1877 -77.2144
rradius 36.884
rwrist -1.43377
rhand -19.7484 20.6218
rfingers 7.12502
rthumb 6.58275 -9.2559
lclavicle -7.20983e-016 -2.62396e-014
lhumerus -40.8108 6.49821 76.963
lradius 39.5395
lwrist -2.62736
lhand -15.5219 25.3443
lfingers 7.12502
lthumb 10.6614 55.0538
rfemur -4.6028 5.29612 21.5129
rtibia 19.7437
rfoot -10.0845 -7.77374
rtoes 4.78651
lfemur -7.80965 -3.99467 -22.2902
ltibia 19.5535
lfoot -9.56768 5.24431
ltoes 2.86769
398
root 0.291867 17.7712 6.39633 1.57853 -0.732593 1.23196
lowerback 4.82909 -0.455828 -1.37583
upperback -1.93691 -0.59813 2.3321
thorax -4.67753 -0.217921 3.24515
lowerneck -17.7068 -4.20731 -9.80247
upperneck 24.8409 -4.61829 5.67519
head 11.3878 -2.32613 3.03989
rclavicle -7.89237e-015 -5.56597e-015
rhumerus -36.519 -12.3167 -77.1103
rradius 36.6951
rwrist -1.60209
rhand -19.6372 20.7196
rfingers 7.12502
rthumb 6.69003 -9.15474
lclavicle -7.89237e-015 -5.56597e-015
lhumerus -40.8615 6.46433 77.0619
lradius 39.3589
lwrist -2.81583
lhand -15.9174 24.7593
lfingers 7.12502
lthumb 10.2798 54.488
rfemur -4.40017 5.34841 21.5884
rtibia 19.6153
rfoot -10.0942 -7.76196
rtoes 4.70623
lfemur -7.66452 -3.95191 -22.2365
ltibia 19.5551
lfoot -9.67538 5.3051
ltoes 3.0096
399
root 0.284385 17.7712 6.41063 1.48718 -0.807714 0.961889
lowerback 4.95476 -0.450125 -1.20519
upperback -1.91463 -0.574999 2.42923
thorax -4.72787 -0.209565 3.24977
lowerneck -17.6915 -4.15654 -9.7735
upperneck 24.827 -4.5659 5.71089
head 11.3743 -2.29539 3.05652
rclavicle 4.69629e-015 -2.70347e-014
rhumerus -36.613 -12.4577 -77.0421
rradius 36.4834
rwrist -1.4192
rhand -19.7335 20.9645
rfingers 7.12502
rthumb 6.59708 -8.91274
lclavicle 4.69629e-015 -2.70347e-014
lhumerus -40.8163 6.60723 77.1152
lradius 39.0486
lwrist -3.04895
lhand -16.6801 21.0241
lfingers 7.12502
lthumb 9.54401 50.788
rfemur -4.17793 5.71026 21.9691
rtibia 19.4934
rfoot -10.0493 -8.04474
rtoes 4.55996
lfemur -7.49984 -3.93827 -21.9089
ltibia 19.5352
lfoot -9.70477 5.35898
ltoes 3.30573
400
root 0.27842 17.7723 6.42376 1.41299 -0.843609 0.819034
lowerback 5.03303 -0.443907 -1.12304
upperback -1.90748 -0.559109 2.47244
thorax -4.76627 -0.203029 3.2482
lowerneck -17.6863 -4.13566 -9.84
upperneck 24.9243 -4.54336 5.79229
head 11.4119 -2.28279 3.1035
rclavicle -1.12407e-014 2.38542e-014
rhumerus -36.539 -12.7492 -76.921
rradius 35.9546
rwrist -1.18123
rhand -19.6902 21.4049
rfingers 7.12502
rthumb 6.63893 -8.47108
lclavicle -1.12407e-014 2.38542e-014
lhumerus -40.8005 6.69034 77.1823
lradius 38.866
lwrist -3.22518
lhand -17.2958 18.5521
lfingers 7.12502
lthumb 8.94995 48.3422
rfemur -4.01326 6.0009 22.1989
rtibia 19.4061
rfoot -9.97769 -8.31173
rtoes 4.57442
lfemur -7.36563 -3.9479 -21.7305
ltibia 19.4846
lfoot -9.68008 5.41418
ltoes 3.32245
401
root 0.27934 17.7739 6.44084 1.4623 -0.857603 1.01434
lowerback 4.8595 -0.455119 -1.3189
upperback -1.92423 -0.588961 2.43646
thorax -4.68188 -0.21349 3.32139
lowerneck -17.5887 -4.16648 -9.94441
upperneck 24.9349 -4.5781 5.83201
head 11.4042 -2.30537 3.13148
rclavicle -6.19338e-015 -1.90833e-014
rhumerus -36.4792 -12.9079 -76.7918
rradius 35.4856
rwrist -0.970228
rhand -19.6962 21.7712
rfingers 7.12502
rthumb 6.63306 -8.10491
lclavicle -6.19338e-015 -1.90833e-014
lhumerus -40.8671 6.76937 77.2906
lradius 38.7933
lwrist -3.39255
lhand -16.2173 23.3124
lfingers 7.12502
lthumb 9.9905 53.0553
rfemur -4.00441 5.99978 21.9645
rtibia 19.369
rfoot -10.0351 -8.26965
rtoes 4.72563
lfemur -7.30473 -3.91104 -21.97
ltibia 19.3883
lfoot -9.69853 5.44259
ltoes 2.96948
